<svg width="64" height="64" viewBox="0 0 64 64" fill="none" xmlns="http://www.w3.org/2000/svg">
<path d="M48.138 37.426C50.718 39.896 54.042 42.416 58 44C58 44 55.898 38.724 54.742 32.012C58.014 29.046 60 25.204 60 21C60 11.612 50.15 4 38 4C25.85 4 16 11.612 16 21C16 21.286 16.01 21.572 16.028 21.856" stroke="black" stroke-width="2" stroke-linecap="round" stroke-linejoin="round"/>
<path fill-rule="evenodd" clip-rule="evenodd" d="M4 37C4 27.612 13.85 20 26 20C38.15 20 48 27.612 48 37C48 46.388 38.15 54 26 54C22.73 54 19.64 53.434 16.85 52.446C14.154 55.21 10.484 58.206 6 60C6 60 8.102 54.724 9.258 48.012C5.986 45.046 4 41.204 4 37Z" stroke="black" stroke-width="2" stroke-linecap="round" stroke-linejoin="round"/>
<path d="M12 37C12 32.742 17.75 28 26 28" stroke="black" stroke-width="2" stroke-linecap="round" stroke-linejoin="round"/>
</svg>
